<svg xmlns="http://www.w3.org/2000/svg" viewBox="0 0 96 96">
  <defs>
    <linearGradient id="leaf" x1="0%" y1="0%" x2="100%" y2="100%">
      <stop offset="0%" stop-color="#7dcc45" />
      <stop offset="100%" stop-color="#4aa533" />
    </linearGradient>
  </defs>
  <path d="M48 88C20 66 8 52 8 34c0-13.255 10.745-24 24-24 8.3 0 15.655 4.173 20 10.52C56.345 14.173 63.7 10 72 10c13.255 0 24 10.745 24 24 0 18-12 32-40 54z" fill="#38a049" />
  <path d="M78 24c-12 2-24 14-30 34-4-6-6-14-6-22 0-8 3-15 6-20-2-1-5-2-8-2-10 0-18 8-18 18 0 14 10 26 32 42 4-3 8-6 12-10 8-8 12-18 12-27 0-5-1-9-2-13z" fill="url(#leaf)" />
  <text x="31" y="62" font-size="42" font-weight="700" font-family="Helvetica, Arial, sans-serif" fill="#0c0c0c">S</text>
  <circle cx="74" cy="72" r="5" fill="#0c0c0c" />
</svg>
